<?xml version="1.0" encoding="UTF-8"?>
<svg id="Layer_1" data-name="Layer 1" xmlns="http://www.w3.org/2000/svg" viewBox="0 0 128.67 101.01">
  <defs>
    <style>
      .cls-1, .cls-2, .cls-3 {
        fill: none;
        stroke: #fff;
        stroke-miterlimit: 10;
      }

      .cls-2 {
        stroke-width: 4px;
      }

      .cls-3 {
        stroke-width: 2px;
      }
    </style>
  </defs>
  <g id="Z">
    <polygon class="cls-2" points="12.24 2.01 114.9 2.78 122.57 12.69 46.46 77.64 120.61 78.01 116.11 87.27 120.61 99.01 16.9 99.01 10.46 86.78 94.35 19.56 12.9 19.01 3.01 9.78 12.24 2.01"/>
    <line class="cls-2" x1="10.46" y1="86.78" x2="116.11" y2="87.27"/>
    <line class="cls-2" x1="21.72" y1="77.76" x2="48.95" y2="77.65"/>
    <line class="cls-2" x1="94.35" y1="19.56" x2="114.9" y2="2.78"/>
    <line class="cls-2" x1="3.01" y1="9.78" x2="105.15" y2="10.74"/>
    <polyline class="cls-2" points="121.93 76.74 126.51 88.73 121.68 100.23"/>
  </g>
  <g id="Teiler">
    <polyline class="cls-3" points="63.7 2.16 59.61 10.33 64.03 18.33"/>
    <line class="cls-3" x1="66.56" y1="42.62" x2="75.31" y2="52.74"/>
    <polyline class="cls-3" points="71.53 77.45 64.97 87.01 70.09 99.01"/>
  </g>
  <g id="Nets">
    <polyline class="cls-1" points="27.03 2.77 22.46 9.84 27.21 18.62"/>
    <polyline class="cls-1" points="43.68 2.59 39.28 10.1 44.32 19.1"/>
    <line class="cls-1" x1="9.24" y1="5.69" x2="60.86" y2="6.44"/>
    <path class="cls-1" d="M9.65,14.48c.17,0,52.39.72,52.39.72"/>
    <line class="cls-1" x1="54.9" y1="52.05" x2="63.99" y2="62.26"/>
    <line class="cls-1" x1="40.7" y1="63.17" x2="50.15" y2="73.38"/>
    <line class="cls-1" x1="70.32" y1="47.59" x2="35.95" y2="76.34"/>
    <polyline class="cls-1" points="86.9 78.35 81.53 87.23 86.4 98.14"/>
    <polyline class="cls-1" points="102.95 78.3 98.24 87.34 102.49 97.94"/>
    <line class="cls-1" x1="68.15" y1="92.94" x2="117.53" y2="93.27"/>
    <line class="cls-1" x1="68.49" y1="82.1" x2="117.53" y2="82.56"/>
    <line class="cls-1" x1="119.36" y1="83.23" x2="123.53" y2="92.52"/>
    <line class="cls-1" x1="119.57" y1="92.48" x2="124.07" y2="83.64"/>
  </g>
</svg>